# Alias OBJ Model File
# Exported from SketchUp, (c) 2000-2012 Trimble Navigation Limited
# File units = centimeters

mtllib blue_jeans.mtl

g Mesh1 Group1 Model

usemtl Color_I02
v 327.578 53.4548 -107.351
vt -17.9662 0.79344
vn 0.160026 0.17389 -0.971676
v 312.385 47.067 -102.149
vt -16.1385 0.0225503
vn -0.822682 0.231845 -0.519078
v 312.742 51.1974 -100.829
vt -16.1079 0.521016
vn -0.826703 0.00159776 -0.562637
f 1/1/1 2/2/2 3/3/3

vt -17.9675 0.812209
v 327.249 49.8487 -108.54
vt -17.9948 0.37562
vn 0.0686467 0.306575 -0.949368
vt -16.1408 0.0388471
f 1/4/1 4/5/4 2/6/2

vt -8.64492 -2.5074
v 346.653 49.9927 -95.4767
vt -11.2225 -2.91453
vn 0.684999 0.17362 -0.707554
vt -8.53759 -2.93147
f 1/7/1 5/8/5 4/9/4

v 346.718 54.6291 -94.3376
vt -11.3647 -1.97362
vn 0.751916 0.126018 -0.647103
vt -11.286 -2.51601
vt -8.70814 -2.111
f 6/10/6 5/11/5 1/12/1

vt -1.64449 -0.728855
v 356.133 51.3597 -75.1515
vt -4.09729 -1.10578
vn 0.983686 -0.0493925 0.172978
vt -1.52309 -1.2633
f 6/13/6 7/14/7 5/15/5

v 356.169 55.0165 -74.2569
vt -4.19187 -0.684122
vn 0.993946 0.0770286 -0.0783497
f 7/14/7 6/13/6 8/16/8

v 346.03 59.0496 -94.4332
vt -1.60748 -0.938007
vn 0.752806 0.114623 -0.648186
vt -4.1986 -1.40491
vt -1.65122 -1.44976
f 9/17/9 8/18/8 6/19/6

vt -1.53678 -1.32735
v 355.624 59.0476 -73.9745
vt -4.13048 -1.32758
vn 0.980522 0.135127 0.142539
vt -4.12766 -1.79559
f 9/20/9 10/21/10 8/22/8

vt -1.53677 -1.44178
v 342.809 146.487 -68.7366
vt -4.05026 8.71917
vn 0.984837 0.173466 -0.00248993
vt -4.13047 -1.44201
f 9/23/9 11/24/11 10/25/10

v 331.523 146.41 -97.3007
vt 0.574551 8.97594
vn 0.753691 0.11181 -0.647649
vt -2.9507 8.98488
vt -0.343895 -1.15253
f 12/26/12 11/27/11 9/28/9

v 325.171 181.487 -98.208
vt 0.938835 12.7386
vn 0.828684 0.16897 -0.533602
vt -2.95145 8.6709
vt 0.573809 8.66195
f 13/29/13 11/30/11 12/31/12

vt 0.625948 13.0699
v 335.72 181.072 -73.0437
vt -2.50598 13.0218
vn 0.93092 0.356434 0.0796374
vt -3.27527 9.01267
f 13/32/13 14/33/14 11/34/11

vt -2.2356 -3.0256
vt 0.895835 -2.95229
v 320.451 200.934 -48.5336
vt -4.20039 0.484881
vn 0.861175 0.115365 0.495044
f 14/35/14 13/36/13 15/37/15

vt 9.26379 17.0653
v 327.419 206.517 -95.339
vt 8.97235 19.9539
vn 0.89916 -0.00894944 -0.437529
vt 3.54116 19.3096
f 13/38/13 16/39/16 15/40/15

usemtl Color_J01
vt -8.56953 17.9337
vt -8.16518 15.0587
v 299.426 180.37 -117.708
vt -4.45821 14.9304
vn 0.394699 -0.0782144 -0.915476
f 16/41/16 13/42/13 17/43/17

usemtl Color_I02
vt -8.13854 15.8382
v 304.423 144.841 -113.326
vt -5.19242 11.6316
vn 0.142146 -0.0760553 -0.98692
vt -4.43157 15.71
f 13/44/13 18/45/18 17/46/17

vt -9.87588 14.6203
vt -10.5575 10.5845
vt -6.9437 10.404
f 13/47/13 12/48/12 18/49/18

vt -10.5478 10.7877
vt -12.1501 0.744724
vt -6.93397 10.6074
f 12/50/12 9/51/9 18/52/18

vt -6.09823 10.1192
vt -11.2745 0.235585
v 326.463 57.928 -107.602
vt -8.5673 0.106372
vn 0.0983357 -0.0348106 -0.994544
f 18/53/18 9/54/9 19/55/19

vt -11.2787 0.147715
vt -8.69396 -0.497151
vt -8.57151 0.018438
f 9/56/9 1/57/1 19/58/19

vt -11.1912 0.494181
vt -11.2629 -0.0144187
vt -8.60621 -0.149532
f 9/59/9 6/60/6 1/61/1

vt -17.908 1.14255
v 311.301 56.5559 -101.048
vt -15.9052 1.50219
vn -0.818081 -0.254224 -0.515862
vt -17.801 1.66156
f 1/62/1 20/63/20 19/64/19

vt -16.0481 0.881043
f 20/63/20 1/62/1 3/65/3

vt -8.4875 -2.28902
vt -8.47384 -2.92626
v 311.388 49.6195 -74.9279
vt -5.49718 -3.11391
vn -0.971477 -0.136582 0.193851
f 20/66/20 3/67/3 21/68/21

vt -8.31111 1.59663
vt -5.18462 1.89109
vt -8.16163 2.07313
f 2/69/2 21/70/21 3/71/3

vt -8.27386 1.20599
v 311.14 45.2558 -76.475
vt -5.32347 0.997556
vn -0.941709 -0.0649601 0.330097
vt -5.1473 1.49973
f 2/72/2 22/73/22 21/74/21

v 333.872 45.2558 -50.7898
vt 9.72505 -2.61661
vn -0.118935 -0.262202 0.957656
vt 5.93997 -2.10633
vt 5.78808 -2.61638
f 23/75/23 21/76/21 22/77/22

v 333.754 50.7989 -49.2769
vt 9.84614 -1.96817
vn -0.123081 -0.194154 0.973219
f 21/76/21 23/75/23 24/78/24

v 347.949 48.4654 -59.6381
vt 16.6532 2.03352
vn 0.744423 -0.163408 0.647405
vt 14.6368 2.30729
vt 14.7463 1.6568
f 25/79/25 24/80/24 23/81/23

v 347.908 53.0644 -58.4347
vt 16.571 2.57297
vn 0.777581 -0.0697991 0.624897
f 24/80/24 25/79/25 26/82/26

vt 12.7414 2.34719
vt 10.603 2.54404
vt 10.7285 2.01299
f 7/83/7 26/84/26 25/85/25

vt 12.7542 2.48233
vt 12.6644 2.90503
vt 10.6159 2.67938
f 7/86/7 8/87/8 26/88/26

vt 12.9636 0.249242
vt 10.9731 -0.440298
vt 13.0217 -0.21515
f 10/89/10 26/90/26 8/91/8

v 347.323 56.8693 -58.105
vt 10.908 -0.00162311
vn 0.669757 0.0595517 0.740188
f 26/90/26 10/89/10 27/92/27

vt 13.0262 -0.14447
v 331.872 144.466 -51.1201
vt 9.42135 9.72707
vn 0.69496 0.0976792 0.712383
vt 10.9708 -0.396207
f 10/93/10 28/94/28 27/95/27

vt 14.0034 0.312528
vt 12.7085 10.3912
vt 10.3285 10.1582
f 10/96/10 11/97/11 28/98/28

vt 12.8107 9.26164
v 324.8 181.142 -51.8809
vt 10.0646 13.2987
vn 0.600406 0.15417 0.784694
vt 10.431 9.0262
f 11/99/11 29/100/29 28/101/28

vt 11.5795 12.1282
vt 8.84605 12.1364
vt 11.5126 8.04643
f 14/102/14 29/103/29 11/104/11

vt 11.5842 13.9579
vt 8.28049 16.2535
vt 8.8507 13.966
f 14/105/14 15/106/15 29/107/29

vt 15.111 17.9535
v 268.582 198.995 -37.3769
vt 9.02124 17.7294
vn -0.00772051 -0.171406 0.98517
vt 15.6809 15.666
f 15/108/15 30/109/30 29/110/29

v 269.367 247.361 -35.3733
vt 9.06532 23.2618
vn -0.18475 0.207295 0.960675
vt 9.02594 17.705
vt 15.1157 17.9278
f 31/111/31 30/112/30 15/113/15

vt 9.01655 23.1032
v 222.094 200.934 -48.5336
vt 3.38741 17.7707
vn -0.669435 0.109319 0.734783
vt 8.87491 17.548
f 31/114/31 32/115/32 30/116/30

v 210.544 203.192 -71.9277
vt -2.37534 17.1155
vn -0.980257 0.164779 0.109286
vt 0.613147 16.7931
vt 4.63101 23.4248
f 33/117/33 32/118/32 31/119/31

v 209.003 181.072 -73.0437
vt -2.82416 15.7374
vn -0.980935 0.114265 0.157195
vt 0.363981 18.019
vt -2.63065 18.2783
f 34/120/34 32/121/32 33/122/33

vt -2.76634 15.6671
v 219.923 181.142 -51.8809
vt -0.0328829 15.6751
vn -0.605161 0.114826 0.787779
vt 0.422774 17.9473
f 34/123/34 35/124/35 32/125/32

vt -2.76896 16.1076
v 201.914 146.487 -68.7366
vt -2.70208 12.0258
vn -0.986076 0.16608 0.00842057
vt -0.0355049 16.1158
f 34/126/34 36/127/36 35/128/35

v 217.374 181.487 -98.208
vt -7.88558 15.5864
vn -0.8194 0.0717669 -0.568711
vt -4.11714 11.5207
vt -4.84156 15.5382
f 37/129/37 36/130/36 34/131/34

vt -7.92333 15.6001
v 213.199 146.41 -97.3007
vt -7.65032 11.5534
vn -0.756053 0.088696 -0.648473
vt -4.12507 11.5623
f 37/132/37 38/133/38 36/134/36

vt -6.50976 15.4528
v 240.3 144.841 -113.326
vt -9.65783 11.2435
vn -0.137669 -0.0811695 -0.987147
vt -6.04404 11.4237
f 37/135/37 39/136/39 38/137/38

vt -6.84418 15.7157
v 245.296 180.37 -117.708
vt -10.7534 15.5876
vn -0.379782 -0.0678723 -0.922583
vt -9.99515 11.5086
f 37/138/37 40/139/40 39/140/39

usemtl Color_J01
v 217.304 206.517 -95.339
vt -6.63495 18.0831
vn -0.812661 0.0330751 -0.581797
vt -10.7384 15.0691
vt -6.82925 15.1978
f 41/141/41 40/142/40 37/143/37

v 244.221 209.227 -121.777
vt -11.4837 19.0116
vn -0.405366 -0.0796494 -0.910678
vt -11.2483 15.6726
vt -7.15327 18.698
f 42/144/42 40/145/40 41/146/41

usemtl Color_I02
vt -6.15478 20.0352
v 260.903 181.743 -117.533
vt -8.08044 16.8497
vn 0.483569 -0.217802 -0.847775
vt -6.28914 16.6907
f 42/147/42 43/148/43 40/149/40

vt -7.44166 20.3492
v 254.922 208.792 -122.864
vt -8.67626 20.2981
vn 0.136882 -0.114814 -0.983911
vt -9.29121 17.119
f 42/150/42 44/151/44 43/152/43

v 273.122 248.164 -117.181
vt -10.5432 21.342
vn -0.00164791 0.158583 -0.987344
vt -8.5245 16.7444
vt -7.28989 16.7952
f 45/153/45 44/154/44 42/155/42

vt -9.99696 21.5778
v 268.597 208.972 -123.265
vt -9.49983 17.0229
vn -0.00426006 -0.299105 -0.954211
vt -7.92952 17.0019
f 45/156/45 46/157/46 44/158/44

vt -9.51505 21.5741
v 289.8 208.792 -122.864
vt -11.4159 17.0024
vn -0.143152 -0.115489 -0.982939
vt -8.98172 17.0234
f 45/159/45 47/160/47 46/161/46

vt -8.7837 21.057
v 300.502 209.227 -121.777
vt -11.8631 16.5131
vn 0.405466 -0.0802622 -0.910579
vt -10.6285 16.4624
f 45/162/45 48/163/48 47/164/47

vt -9.40956 21.7235
v 319.314 246.81 -115.93
vt -14.7134 21.5666
vn 0.592558 -0.174265 -0.786452
vt -12.5343 17.2107
f 45/165/45 49/166/49 48/167/48

vt 6.4385 23.2611
vt 5.25522 27.9858
v 324.235 245.496 -94.2332
vt 2.7024 27.8205
vn 0.952015 -0.148568 -0.267574
f 48/168/48 49/169/49 50/170/50

vt -6.28883 21.6935
vt -6.45867 17.206
vt -2.12815 17.518
f 50/171/50 16/172/16 48/173/48

vt 9.28716 17.341
vt 9.10474 21.8281
vt 3.85578 16.6984
f 16/174/16 50/175/50 15/176/15

vt 3.20368 26.8571
v 328.78 242.693 -69.9167
vt 0.365967 26.5206
vn 0.921618 0.0147779 0.387817
vt -1.82145 21.5079
f 50/177/50 51/178/51 15/179/15

vt 7.91159 20.4837
vt 13.7013 14.8677
vt 15.7979 19.9191
f 31/180/31 15/181/15 51/182/51

usemtl Color_J01
vt -2.36488 20.6989
vt -6.69529 20.3853
vt -2.60024 17.36
f 48/183/48 16/184/16 17/185/17

usemtl Color_I02
vt -13.079 19.9725
vt -12.9446 16.628
v 283.82 181.743 -117.533
vt -11.1533 16.787
vn -0.488969 -0.215565 -0.845246
f 48/186/48 17/187/17 52/188/52

vt -11.1423 16.6945
vt -12.9336 16.5357
vt -13.4958 12.4252
f 52/189/52 17/190/17 18/191/18

vt -13.6821 16.3288
vt -15.6907 11.8868
v 288.773 142.424 -106.135
vt -13.7158 11.5958
vn -0.748563 -0.251927 -0.61334
f 52/192/52 18/193/18 53/194/53

vt -15.7593 11.7483
vt -15.9242 1.48817
vt -13.7829 11.4674
f 18/195/18 20/196/20 53/197/53

vt -15.7182 11.7814
vt -17.8006 1.68105
vt -15.9048 1.52159
f 18/198/18 19/199/19 20/200/20

vt -10.2843 8.27237
vt -10.2364 -1.93386
v 284.014 141.272 -81.605
vt -7.41642 8.13544
vn -0.953158 -0.256463 0.160361
f 53/201/53 20/202/20 54/203/54

vt -8.57841 -2.67881
v 310.306 53.3635 -75.007
vt -5.58929 -3.06179
vn -0.915121 -0.253752 0.31331
vt -6.11707 7.4841
f 20/204/20 55/205/55 54/206/54

vt -8.55497 -2.50979
vt -5.56576 -3.33871
vt -5.56567 -2.89129
f 20/207/20 21/208/21 55/209/55

vt 9.8462 -2.0518
vt 5.85097 -1.75151
vt 5.94003 -2.18998
f 24/210/24 55/211/55 21/212/21

v 333.128 54.3776 -48.9005
vt 9.83102 -1.63285
vn -0.324059 -0.147552 0.934459
f 55/211/55 24/210/24 56/213/56

vt 16.8001 0.829562
vt 14.7814 0.980305
vt 14.8651 0.569522
f 26/214/26 56/215/56 24/216/24

vt 16.7232 1.26632
f 56/215/56 26/214/26 27/217/27

v 308.867 142.263 -41.5525
vt 12.0503 10.5817
vn 0.0069489 -0.0528648 0.998577
vt 14.8546 0.464371
vt 16.7963 0.75121
f 57/218/57 56/219/56 27/220/27

vt 1.3389 7.37426
vt 7.51729 -2.9784
vt 6.74923 7.4923
f 54/221/54 56/222/56 57/223/57

vt 3.27617 8.84141
vt 5.84162 -1.40129
vt 9.82168 -1.28313
f 54/224/54 55/225/55 56/226/56

vt 1.32787 7.96203
vt 6.73823 8.07884
v 298.395 181.3 -40.9917
vt 6.154 12.6816
vn -0.372274 -0.366605 0.85265
f 54/227/54 57/228/57 58/229/58

vt 11.8993 15.1795
vt 13.0348 10.6809
vt 15.1776 15.1613
f 58/230/58 57/231/57 29/232/29

vt 15.2011 15.1541
vt 13.0606 10.6727
vt 15.9203 10.9267
f 29/233/29 57/234/57 28/235/28

vt 15.8807 11.4143
vt 13.0209 11.1614
vt 17.8261 1.35962
f 28/236/28 57/237/57 27/238/27

vt 8.57123 14.668
vt 11.8907 12.4344
vt 15.169 12.4144
f 30/239/30 58/240/58 29/241/29

vt 8.25919 10.5371
v 280.44 183.958 -46.6074
vt 9.05684 8.23104
vn -0.129928 -0.891646 0.433689
vt 11.1992 7.82347
f 30/242/30 59/243/59 58/244/58

vt 9.18571 14.9189
v 264.801 183.958 -46.6074
vt 8.75171 12.8936
vn 0.131657 -0.874678 0.466481
vt 10.5468 12.8936
f 30/245/30 60/246/60 59/247/59

vt 8.59468 16.5018
v 246.327 181.3 -40.9917
vt 6.38516 14.0645
vn 0.355048 -0.36332 0.861359
vt 8.59211 14.4306
f 30/248/30 61/249/61 60/250/60

vt 8.3982 17.9833
vt 2.60119 15.8481
vt 5.87951 15.8671
f 30/251/30 35/252/35 61/253/61

vt 3.3776 17.3749
vt 3.04395 15.0816
vt 8.86503 17.1502
f 32/254/32 35/255/35 30/256/30

vt 5.88304 15.8314
vt 2.60472 15.8131
v 235.856 142.263 -41.5525
vt 4.74754 11.3328
vn -0.0069489 -0.0528648 0.998577
f 61/257/61 35/258/35 62/259/62

vt 2.62228 15.8164
v 212.851 144.466 -51.1201
vt 1.90315 11.5889
vn -0.69496 0.0976792 0.712383
vt 4.76283 11.3349
f 35/260/35 63/261/63 62/262/62

vt -2.38812 12.0232
vt -0.00840338 11.7878
vt 0.357948 16.0603
f 36/263/36 63/264/63 35/265/35

v 189.099 59.0476 -73.9745
vt -3.70973 1.79788
vn -0.980522 0.135127 0.142539
vt -0.0348201 11.6436
vt -2.41479 11.8765
f 64/266/64 63/267/63 36/268/36

vt -3.86657 1.82413
v 197.4 56.8693 -58.105
vt -1.81109 1.57239
vn -0.669757 0.0595517 0.740188
vt -0.261681 11.6957
f 64/269/64 65/270/65 63/271/63

vt -3.87571 1.7692
v 196.815 53.0644 -58.4347
vt -1.88518 1.07966
vn -0.777581 -0.0697991 0.624897
vt -1.82013 1.51834
f 64/272/64 66/273/66 65/274/65

v 188.554 55.0165 -74.2569
vt -3.93381 1.30481
vn -0.993946 0.0770286 -0.0783497
f 66/273/66 64/272/64 67/275/67

v 198.693 59.0496 -94.4332
vt -6.63174 1.29102
vn -0.752806 0.114623 -0.648186
vt -4.04087 0.822775
vt -4.03805 1.29078
f 68/276/68 67/277/67 64/278/64

vt -6.62499 1.32874
v 198.005 54.6291 -94.3376
vt -6.58126 0.816988
vn -0.751916 0.126018 -0.647103
vt -4.03388 0.861835
f 68/279/68 69/280/69 67/281/67

vt -4.75655 1.2367
v 217.145 53.4548 -107.351
vt -7.34157 0.592985
vn -0.160026 0.17389 -0.971676
vt -4.68492 0.728098
f 68/282/68 70/283/70 69/284/69

vt -4.72879 1.12112
v 218.26 57.928 -107.602
vt -7.43598 0.991841
vn -0.0983357 -0.0348106 -0.994544
vt -7.31353 0.476252
f 68/285/68 71/286/71 70/287/70

vt -9.9064 11.0335
vt -7.43732 1.02064
vt -4.73013 1.14986
f 39/288/39 71/289/71 68/290/68

vt -2.04017 12.9389
v 233.422 56.5559 -101.048
vt -1.85358 2.67914
vn 0.818081 -0.254224 -0.515862
vt 0.0421954 2.83859
f 39/291/39 72/292/72 71/293/71

vt -1.89733 12.9451
v 255.95 142.424 -106.135
vt -3.8737 12.6641
vn 0.748563 -0.251927 -0.61334
vt -1.73246 2.68491
f 39/294/39 73/295/73 72/296/72

vt -4.13911 18.5128
vt -4.10545 13.7798
vt -2.13054 14.0709
f 43/297/43 73/298/73 39/299/39

vt 7.59302 17.1991
v 260.709 141.272 -81.605
vt 3.55571 12.4783
vn 0.952452 -0.259482 0.159697
vt 6.42375 12.6127
f 43/300/43 74/301/74 73/302/73

vt 3.96333 19.1845
v 272.62 184.258 -99.6919
vt 1.51677 19.5012
vn -0.00614443 -0.892381 -0.45124
vt 0.41209 14.088
f 43/303/43 75/304/75 74/305/74

vt 4.10804 17.839
vt 0.767755 15.0152
vt 3.21769 14.7258
f 44/306/44 75/307/75 43/308/43

vt -9.35467 20.4463
vt -9.7712 16.5209
vt -7.78449 20.4176
f 46/309/46 75/310/75 44/311/44

vt -9.07792 20.6344
vt -11.512 20.6058
vt -9.56891 16.7176
f 46/312/46 47/313/47 75/314/75

vt -14.7262 19.0584
vt -13.8406 15.9438
vt -11.4228 16.2334
f 47/315/47 52/316/52 75/317/75

vt -11.6807 20.8044
vt -9.83111 17.5741
vt -10.4461 20.7532
f 48/318/48 52/319/52 47/320/47

vt -13.5608 12.3747
vt -9.96937 7.3064
vt -11.1462 12.6897
f 52/321/52 54/322/54 75/323/75

vt -11.4145 13.8402
vt -10.2453 9.25378
vt -7.37724 9.1194
f 52/324/52 53/325/53 54/326/54

vt -2.92116 15.0252
vt -0.495784 10.0773
vt 4.43742 14.6848
f 75/327/75 54/328/54 58/329/58

vt 0.74389 -10.0745
vt -0.123161 -8.07347
vt -6.27801 -7.84799
f 58/330/58 59/331/59 75/332/75

vt -10.5468 1.37925
vt -8.75171 1.37925
vt -9.64927 7.47248
f 59/333/59 60/334/60 75/335/75

vt 8.38817 11.0545
vt 2.23357 10.8223
vt 1.36222 8.76185
f 75/336/75 60/337/60 61/338/61

vt 10.66 16.3813
vt 3.27729 16.0408
vt 8.20793 11.4305
f 75/339/75 61/340/61 74/341/74

vt 8.89657 11.6882
vt 4.07044 16.4078
vt 3.48621 11.805
f 74/342/74 61/343/61 62/344/62

vt 8.90039 11.74
vt 3.49005 11.858
v 211.594 54.3776 -48.9005
vt 2.72199 1.38733
vn 0.324059 -0.147552 0.934459
f 74/345/74 62/346/62 76/347/76

vt 4.20945 11.3703
vt -0.536619 1.53979
vt 1.40508 1.25295
f 62/348/62 65/349/65 76/350/76

vt 1.87956 11.3715
vt -0.0658869 1.31678
vt 4.73934 11.1185
f 63/351/63 65/352/65 62/353/62

vt -0.639877 0.919953
vt 1.37885 1.0707
vt -0.56297 1.35671
f 66/354/66 76/355/76 65/356/65

v 210.969 50.7989 -49.2769
vt 1.29512 0.659913
vn 0.123081 -0.194154 0.973219
f 76/355/76 66/354/66 77/357/77

v 196.774 48.4654 -59.6381
vt -0.800759 -0.226074
vn -0.744423 -0.163408 0.647405
vt 1.21565 0.0476956
vt -0.718583 0.313371
f 78/358/78 77/359/77 66/360/66

v 210.851 45.2558 -50.7898
vt 1.10607 -0.602793
vn 0.118935 -0.262202 0.957656
f 77/359/77 78/358/78 79/361/79

vt 3.021 0.14258
v 233.335 49.6195 -74.9279
vt 6.80609 0.65286
vn 0.971477 -0.136582 0.193851
vt 2.89992 0.791025
f 79/362/79 80/363/80 77/364/77

v 233.583 45.2558 -76.475
vt 6.95798 0.142817
vn 0.941709 -0.0649601 0.330097
f 80/363/80 79/362/79 81/365/81

v 232.337 47.067 -102.149
vt 7.43952 -0.178138
vn 0.822682 0.231845 -0.519078
vt 4.31296 0.115603
vt 4.48914 -0.38657
f 82/366/82 80/367/80 81/368/81

vt 7.42511 -0.332509
v 231.981 51.1974 -100.829
vt 7.27563 0.143995
vn 0.826703 0.00159776 -0.562637
vt 4.29861 -0.0380425
f 82/369/82 83/370/83 80/371/80

vt 0.722082 -1.84134
vt -1.13621 -2.11377
vt -1.10567 -2.61223
f 70/372/70 83/373/83 82/374/82

vt 0.151384 2.1967
vt -1.85142 2.55634
vt -1.70847 1.93519
f 70/375/70 72/376/72 83/377/83

vt 0.0443624 2.71571
f 72/376/72 70/375/70 71/378/71

vt 7.16695 2.73099
vt 4.17663 1.9061
vt 7.15329 2.09375
f 72/379/72 80/380/80 83/381/83

vt 7.13864 2.82946
v 234.416 53.3635 -75.007
vt 4.14933 2.44797
vn 0.915121 -0.253752 0.31331
vt 4.14943 2.00055
f 72/382/72 84/383/84 80/384/80

vt 7.12874 2.89933
vt 4.6674 13.0623
vt 4.13962 2.51636
f 72/385/72 74/386/74 84/387/84

vt 6.38644 13.1651
vt 3.51852 13.0282
vt 6.33848 2.95887
f 73/388/73 74/389/74 72/390/72

vt 9.45996 11.32
vt 2.91444 1.19547
vt 6.89451 1.07731
f 74/391/74 76/392/76 84/393/84

vt 2.89992 0.795574
vt 6.89515 1.09587
vt 2.91511 1.21453
f 77/394/77 84/395/84 76/396/76

vt 6.80609 0.6574
f 84/395/84 77/394/77 80/397/80

vt 0.760311 -1.92478
vt -1.0664 -2.69814
v 217.474 49.8487 -108.54
vt 0.787586 -2.36137
vn -0.0686467 0.306575 -0.949368
f 70/398/70 82/399/82 85/400/85

vt -7.32924 -0.175517
vt -7.43657 -0.599586
v 198.07 49.9927 -95.4767
vt -4.7517 -0.582652
vn -0.684999 0.17362 -0.707554
f 70/401/70 85/402/85 86/403/86

vt -4.65243 0.0839045
vt -7.30897 -0.0534709
vt -4.7311 -0.458479
f 69/404/69 70/405/70 86/406/86

v 188.59 51.3597 -75.1515
vt -4.12912 0.515868
vn -0.983686 -0.0493925 0.172978
vt -6.58193 0.892792
vt -6.70333 0.358348
f 87/407/87 69/408/69 86/409/86

vt -4.03454 0.937525
f 69/408/69 87/407/87 67/410/67

vt -4.07268 0.451566
vt -1.93432 0.648618
vt -3.98289 0.874272
f 87/411/87 66/412/66 67/413/67

vt -4.07442 0.471396
vt -2.0615 0.137191
vt -1.93604 0.668241
f 87/414/87 78/415/78 66/416/66

vt -8.09198 16.7483
vt -5.73853 12.479
vt -6.30066 16.5895
f 43/417/43 39/418/39 40/419/40

vt -6.03989 11.3309
vt -9.65368 11.1506
vt -4.43756 1.28792
f 38/420/38 39/421/39 68/422/68

vt -7.65032 11.4971
vt -6.73188 1.36864
vt -4.12507 11.506
f 38/423/38 68/424/68 36/425/36

vt -6.63174 1.27886
vt -4.03805 1.27863
vt -4.11826 11.4398
f 68/426/68 64/427/64 36/428/36

vt -9.98577 21.8
vt -6.68592 17.2869
v 225.409 246.81 -115.93
vt -4.5074 21.6431
vn -0.592194 -0.174032 -0.786778
f 45/429/45 42/430/42 88/431/88

vt -11.1879 15.658
v 220.488 245.496 -94.2332
vt -7.45179 20.2174
vn -0.93223 -0.027132 -0.360847
vt -10.0046 20.3826
f 42/432/42 89/433/89 88/434/88

vt -7.36156 22.7436
vt -11.5222 18.568
vt -7.19172 18.2561
f 89/435/89 42/436/42 41/437/41

vt -7.51291 18.5573
vt -4.71613 18.1742
vt -7.4878 23.048
f 41/438/41 33/439/33 89/440/89

vt -7.84221 15.665
vt -4.72633 18.1574
vt -7.52328 18.5392
f 37/441/37 33/442/33 41/443/41

vt -7.88659 15.6558
vt -4.84256 15.608
vt -4.77659 18.1555
f 37/444/37 34/445/34 33/446/33

vt -7.27511 23.1033
vt -4.55968 18.198
v 215.943 242.693 -69.9167
vt -4.43606 22.7783
vn -0.9097 0.103879 0.402063
f 89/447/89 33/448/33 90/449/90

vt 7.77764 23.3469
vt 0.475367 22.8108
vt -0.170081 18.2745
f 31/450/31 90/451/90 33/452/33

