# Alias OBJ Model File
# Exported from SketchUp, (c) 2000-2012 Trimble Navigation Limited
# File units = centimeters

mtllib blue_t-shirt_nike.mtl

g Mesh1 Shirt1 Model

usemtl Carpet_Loop_Pattern
v 108.991 155.679 -68.389
vt 2.013 -0.954086
vn 0.348038 -0.409244 -0.843439
v 96.0062 138.746 -65.5315
vt 1.32859 -0.779578
v 93.3357 142.364 -68.389
vt 1.33875 -0.954086
f 1/1/1 2/2/1 3/3/1

vt 2.13491 -0.484069
vn 0.557856 -0.5349 -0.63457
v 98.6768 135.128 -60.134
vt 1.41405 -0.133641
vt 1.43909 -0.362767
f 1/4/2 4/5/2 2/6/2

vt 1.91847 -0.959318
vn 0.369016 -0.499946 -0.783505
v 107.362 141.539 -60.134
vt 1.59998 -0.523463
vt 1.24581 -0.523463
f 1/7/3 5/8/3 4/9/3

v 117.046 148.795 -70.929
vt -1.18717 -1.32691
vn -0.552851 -0.371709 -0.745781
vt -1.16689 -0.795285
vt -1.52203 -1.20182
f 6/10/4 5/11/4 1/12/4

vt -2.21818 -0.165982
vn -0.785315 0.157215 -0.598802
v 117.046 141.539 -72.834
vt -1.98476 -0.244019
vt -1.9224 0.276231
f 6/13/5 7/14/5 5/15/5

v 132.445 141.539 -76.009
vt -2.27926 0.519898
vn -0.195575 0.249039 -0.948541
vt -1.88193 0.848858
vt -2.02895 1.04623
f 8/16/6 7/17/6 6/18/6

vt -0.953125 0.125
vn 1.88087e-016 1 -1.25414e-014
v 147.843 141.539 -72.834
vt -1.96354 0.125
vt -1.45833 0.0208333
f 7/19/7 9/20/7 8/21/7

vt -0.635417 0.541667
f 9/20/7 7/19/7 5/22/7

vt -1.89486 -0.39942
vn -0.793998 0.0550385 -0.605424
v 117.046 113.599 -75.374
vt -0.980383 -0.504123
vt -1.87289 0.124094
f 7/23/8 10/24/8 5/25/8

vt -2.06204 -0.101767
vn -0.201142 0.0886854 -0.975539
v 117.857 140.844 -73.0644
vt -2.0519 -0.136161
vt -1.22328 -0.480855
f 7/26/9 11/27/9 10/28/9

vt -2.26586 -0.575627
f 11/27/9 7/26/9 8/29/9

v 124.076 140.844 -74.3467
vt -2.13422 -0.327542
f 11/27/9 8/29/9 12/30/9

v 123.997 136.416 -74.7328
vt -2.00025 -0.385164
f 8/29/9 13/31/9 12/30/9

f 10/28/9 13/31/9 8/29/9

v 117.777 136.416 -73.4505
vt -1.91793 -0.193783
f 13/31/9 10/28/9 14/32/9

v 117.839 139.851 -73.151
vt -2.02187 -0.149079
f 10/28/9 15/33/9 14/32/9

f 10/28/9 11/27/9 15/33/9

v 121.612 138.859 -74.0192
vt -2.04201 -0.278653
f 11/27/9 16/34/9 15/33/9

v 121.635 140.124 -73.9089
vt -2.08029 -0.26219
f 16/34/9 11/27/9 17/35/9

f 17/35/9 11/27/9 12/30/9

v 121.897 140.147 -73.9607
vt -2.08445 -0.269926
f 17/35/9 12/30/9 18/36/9

v 122.152 140.09 -74.0185
vt -2.08613 -0.278547
f 18/36/9 12/30/9 19/37/9

v 122.378 139.959 -74.077
vt -2.08519 -0.28728
f 19/37/9 12/30/9 20/38/9

v 122.554 139.765 -74.131
vt -2.0817 -0.295342
f 20/38/9 12/30/9 21/39/9

v 122.665 139.526 -74.1757
vt -2.07598 -0.30201
f 21/39/9 12/30/9 22/40/9

v 122.701 139.262 -74.207
vt -2.06855 -0.306686
f 22/40/9 12/30/9 23/41/9

f 23/41/9 12/30/9 13/31/9

v 122.658 138.998 -74.2222
vt -2.06006 -0.308952
f 13/31/9 24/42/9 23/41/9

v 122.541 138.758 -74.2199
vt -2.05128 -0.308603
f 13/31/9 25/43/9 24/42/9

v 122.359 138.562 -74.2002
vt -2.043 -0.305673
f 13/31/9 26/44/9 25/43/9

v 122.13 138.429 -74.165
vt -2.03596 -0.300422
f 13/31/9 27/45/9 26/44/9

v 121.873 138.37 -74.1175
vt -2.03079 -0.293322
f 13/31/9 28/46/9 27/45/9

v 121.612 138.39 -74.0618
vt -2.02795 -0.28501
f 13/31/9 29/47/9 28/46/9

f 13/31/9 15/33/9 29/47/9

f 15/33/9 13/31/9 14/32/9

f 16/34/9 29/47/9 15/33/9

v 121.774 138.88 -74.0505
vt -2.0448 -0.283326
f 29/47/9 16/34/9 30/48/9

f 17/35/9 30/48/9 16/34/9

v 121.795 140.102 -73.9439
vt -2.08177 -0.267423
f 30/48/9 17/35/9 31/49/9

f 18/36/9 31/49/9 17/35/9

v 121.944 140.039 -73.9804
vt -2.08184 -0.272861
f 31/49/9 18/36/9 32/50/9

f 32/50/9 18/36/9 19/37/9

v 122.071 139.938 -74.0157
vt -2.08051 -0.278133
f 32/50/9 19/37/9 33/51/9

v 122.168 139.807 -74.0475
vt -2.07785 -0.28288
f 33/51/9 19/37/9 34/52/9

f 34/52/9 19/37/9 20/38/9

v 122.227 139.655 -74.0736
vt -2.07406 -0.286777
f 34/52/9 20/38/9 35/53/9

v 122.245 139.491 -74.0923
vt -2.06938 -0.289559
f 35/53/9 20/38/9 36/54/9

f 36/54/9 20/38/9 26/44/9

f 26/44/9 20/38/9 25/43/9

f 25/43/9 20/38/9 21/39/9

f 25/43/9 21/39/9 24/42/9

f 24/42/9 21/39/9 22/40/9

f 24/42/9 22/40/9 23/41/9

v 122.221 139.327 -74.1022
vt -2.06415 -0.291038
f 26/44/9 37/55/9 36/54/9

v 122.156 139.175 -74.1027
vt -2.05871 -0.291111
f 26/44/9 38/56/9 37/55/9

f 27/45/9 38/56/9 26/44/9

v 122.055 139.044 -74.0937
vt -2.05344 -0.289775
f 27/45/9 39/57/9 38/56/9

v 121.925 138.943 -74.0759
vt -2.04869 -0.287119
f 27/45/9 40/58/9 39/57/9

f 28/46/9 40/58/9 27/45/9

f 28/46/9 30/48/9 40/58/9

f 29/47/9 30/48/9 28/46/9

f 30/48/9 31/49/9 40/58/9

f 40/58/9 31/49/9 32/50/9

f 40/58/9 32/50/9 39/57/9

f 39/57/9 32/50/9 33/51/9

f 39/57/9 33/51/9 38/56/9

f 38/56/9 33/51/9 34/52/9

f 38/56/9 34/52/9 37/55/9

f 37/55/9 34/52/9 35/53/9

f 37/55/9 35/53/9 36/54/9

v 132.445 113.599 -76.009
vt -0.916667 -1.45624
vn -0.0412021 -1.26648e-014 -0.999151
vt -0.916667 -0.950599
vt -1.83333 -1.45624
f 41/59/10 10/60/10 8/61/10

v 132.445 85.659 -76.644
vt -0.703912 -1.27579
vn -0.0411915 0.0227021 -0.998893
vt -1.26287 -0.389889
vt -1.50672 -0.832839
f 42/62/11 10/63/11 41/64/11

vt 0.534197 -1.29604
vn -0.275698 -0.108534 -0.955097
v 117.046 85.659 -72.199
vt 0.349136 -0.803845
vt -0.503817 -1.15541
f 42/65/12 43/66/12 10/67/12

vt -0.826304 -0.61208
vn -0.777901 -0.0709509 -0.624368
vt 0.0865734 -0.478726
v 107.362 85.659 -60.134
vt 0.0577156 0.0280183
f 10/68/13 43/69/13 44/70/13

vt -0.999194 -0.328658
vn -0.902407 0.082037 -0.423003
vt -0.0575279 0.22314
v 109.902 113.599 -60.134
vt -0.977975 0.22314
f 10/71/14 44/72/14 45/73/14

v 117.046 113.599 -49.974
vt -0.999194 1.21361
vn -0.815777 0.0741615 0.573593
vt -0.977975 0.806675
vt -0.0575279 0.806675
f 46/74/15 45/75/15 44/76/15

vt -1.76828 0.901881
vn -0.815777 -0.0741615 0.573593
vt -0.84783 0.901881
vt -0.82661 1.30881
f 5/77/16 45/78/16 46/79/16

vt -1.76828 0.152929
vn -0.902407 -0.082037 -0.423003
vt -0.82661 -0.398869
vt -0.84783 0.152929
f 5/80/17 10/81/17 45/82/17

v 117.046 141.539 -47.434
vt -1.76303 1.41516
vn -0.793998 -0.0550385 0.605424
vt -1.785 0.891645
vt -0.848562 1.31046
f 47/83/18 5/84/18 46/85/18

v 117.046 148.795 -49.339
vt -2.21818 1.03362
vn -0.785315 0.157215 0.598802
vt -1.9224 0.591408
vt -1.98476 1.11166
f 48/86/19 5/87/19 47/88/19

vt -1.18717 2.04862
vn -0.552851 -0.371709 0.745781
v 108.991 155.679 -51.879
vt -1.52203 1.92353
vt -1.16689 1.51699
f 48/89/20 49/90/20 5/91/20

v 132.445 159.226 -50.609
vt -2.1893 -1.48613
vn -0.090056 0.250316 0.963967
vt -1.42587 -1.64276
vt -1.59807 -1.32951
f 50/92/21 49/93/21 48/94/21

vt -1.94853 -1.08916
vn -0.133176 0.597437 0.79078
v 126.583 159.6 -51.879
vt -1.76351 -1.15723
vt -1.17218 -1.15723
f 50/95/22 51/96/22 49/97/22

vt -1.76351 -0.529188
vn -0.178531 0.800901 0.571563
v 119.427 163.896 -60.134
vt -1.56502 -0.859247
vt -1.17218 -0.529188
f 51/98/23 52/99/23 49/100/23

vt -0.688864 -1.04485
vn 7.58144e-015 0.708716 0.705494
vt -1.03125 -1.42699
v 107.362 163.896 -60.134
vt -0.635417 -1.42699
f 49/101/24 52/102/24 53/103/24

vt -0.635417 2.19477
vn -7.48635e-015 0.708716 -0.705494
vt -1.03125 2.19477
vt -0.688864 1.81262
f 53/104/25 52/105/25 1/106/25

vt -1.56502 1.74819
vn -0.178531 0.800901 -0.571563
v 126.583 159.6 -68.389
vt -1.76351 1.41813
vt -1.17218 1.41813
f 52/107/26 54/108/26 1/109/26

v 132.445 156.051 -70.929
vt -1.92587 1.7957
vn -0.10277 0.461035 -0.881411
vt -1.17218 1.97212
vt -1.76351 1.97212
f 55/110/27 1/111/27 54/112/27

vt -2.3036 1.46697
vn -0.108389 0.230031 -0.967129
vt -1.74512 1.46697
vt -1.60233 1.79468
f 55/113/28 6/114/28 1/115/28

vt -2.10067 0.974481
vn -0.153832 0.326473 -0.932605
vt -1.74512 1.43629
vt -2.3036 1.43629
f 8/116/29 6/117/29 55/118/29

v 147.843 148.795 -70.929
vt -0.893319 2.59572
vn 0.153832 0.326473 -0.932605
vt -0.537771 2.13391
vt -0.334836 2.59572
f 56/119/30 8/120/30 55/121/30

vt -0.411941 2.55758
vn 0.195575 0.249039 -0.948541
vt -0.014611 2.22862
vt -0.264914 2.75496
f 9/122/31 8/123/31 56/124/31

v 147.843 113.599 -75.374
vt 0.0465952 2.12264
vn 0.201142 0.0886854 -0.975539
vt 1.08917 2.02787
vt 0.885353 2.50173
f 57/125/32 8/126/32 9/127/32

vt 0.916667 1.96359
vn 0.0412021 -1.26624e-014 -0.999151
vt 0.916667 1.45795
vt 1.83333 1.45795
f 57/128/33 41/129/33 8/130/33

vt -0.144955 2.16169
vn 0.0411915 0.0227021 -0.998893
vt -0.703912 1.27579
vt 0.0989002 1.71874
f 57/131/34 42/132/34 41/133/34

v 147.843 85.659 -72.199
vt 0.719258 1.78823
vn 0.275698 -0.108534 -0.955097
vt 0.534197 1.29604
vt 1.57221 1.43667
f 58/134/35 42/135/35 57/136/35

vt 1.09123 1.20147
vn 0.777901 -0.0709509 -0.624368
v 157.527 85.659 -60.134
vt 0.207208 1.84156
vt 0.178351 1.33482
f 57/137/36 59/138/36 58/139/36

vt 0.735131 0.900034
vn 0.902407 0.082037 -0.423003
v 154.987 113.599 -60.134
vt 0.713912 1.45183
vt -0.206535 1.45183
f 57/140/37 60/141/37 59/142/37

v 157.527 141.539 -60.134
vt 2.03234 1.38162
vn 0.902407 -0.082037 -0.423003
vt 1.11189 1.38162
vt 1.09067 0.829823
f 61/143/38 60/144/38 57/145/38

vt 2.03234 -0.764228
vn 0.815777 -0.0741615 0.573593
v 147.843 113.599 -49.974
vt 1.09067 -0.357297
vt 1.11189 -0.764228
f 61/146/39 62/147/39 60/148/39

v 147.843 141.539 -47.434
vt 1.96473 -0.346433
vn 0.793998 -0.0550385 0.605424
vt 1.05026 -0.451136
vt 1.9867 -0.869947
f 63/149/40 62/150/40 61/151/40

vt 1.63092 -1.19959
vn 0.201142 -0.0886854 0.975539
vt 2.46968 -0.820503
v 132.445 141.539 -44.259
vt 2.26586 -0.346643
f 62/152/41 63/153/41 64/154/41

v 147.843 148.795 -49.339
vt -0.264914 -2.41191
vn 0.195575 0.249039 0.948541
vt -0.014611 -1.88558
vt -0.411941 -2.21454
f 65/155/42 64/156/42 63/157/42

vt -0.945811 -2.17804
vn 0.149569 0.33411 0.930591
vt -0.344871 -2.29186
vt -0.581963 -1.72274
f 65/158/43 50/159/43 64/160/43

v 155.898 155.679 -51.879
vt -1.31859 -2.59456
vn 0.090056 0.250316 0.963967
vt -0.555158 -2.43793
vt -1.14639 -2.2813
f 66/161/44 50/162/44 65/163/44

vt -1.67462 -1.65905
vn 0.133176 0.597437 0.79078
v 138.306 159.6 -51.879
vt -1.08328 -1.65905
vt -0.898265 -1.59098
f 66/164/45 67/165/45 50/166/45

vt -1.67462 -0.891893
vn 0.178531 0.800901 0.571563
v 145.462 163.896 -60.134
vt -1.28178 -1.22195
vt -1.08328 -0.891893
f 66/167/46 68/168/46 67/169/46

vt -2.2278 -1.04485
vn 7.54974e-015 0.708716 0.705494
v 157.527 163.896 -60.134
vt -2.28125 -1.42699
vt -1.88542 -1.42699
f 66/170/47 69/171/47 68/172/47

v 176.895 149.601 -60.134
vt -1.10084 -1.9139
vn 0.437453 0.592665 0.6763
vt -0.31108 -1.9139
vt -0.428184 -1.54623
f 70/173/48 69/174/48 66/175/48

vt -1.10084 2.71191
vn 0.437453 0.592665 -0.6763
v 155.898 155.679 -68.389
vt -0.428184 2.34424
vt -0.31108 2.71191
f 70/176/49 71/177/49 69/178/49

vt -1.33536 2.42498
vn 0.430616 0.677108 -0.596736
v 174.224 145.983 -66.1665
vt -1.32513 2.17834
vt -0.647079 2.08747
f 70/179/50 72/180/50 71/181/50

vt -0.872937 3.14584
vn 0.287587 0.338162 -0.896069
v 171.553 142.364 -68.389
vt -0.883094 2.98159
vt -0.208837 2.98159
f 72/182/51 73/183/51 71/184/51

vt 0.883094 -2.5478
vn -0.348038 -0.409244 -0.843439
v 168.883 138.746 -65.5315
vt 0.893252 -2.37329
vt 0.208837 -2.5478
f 73/185/52 74/186/52 71/187/52

vt 0.579536 -1.6987
vn -0.557856 -0.5349 -0.63457
v 166.212 135.128 -60.134
vt 0.604577 -1.46957
vt -0.116282 -1.82
f 74/188/53 75/189/53 71/190/53

vt 1.10084 -1.88057
vn -0.369016 -0.499946 -0.783505
vt 0.746675 -1.88057
vt 0.428184 -2.31642
f 75/191/54 61/192/54 71/193/54

vt 1.10084 2.55374
vn -0.369016 -0.499946 0.783505
vt 0.428184 2.98959
vt 0.746675 2.55374
f 75/194/55 66/195/55 61/196/55

v 168.883 138.746 -54.7365
vt 0.579536 2.53597
vn -0.557856 -0.5349 0.63457
vt -0.116282 2.65727
vt 0.604577 2.30684
f 76/197/56 66/198/56 75/199/56

v 171.553 142.364 -51.879
vt 0.883094 3.12979
vn -0.348038 -0.409244 0.843439
vt 0.208837 3.12979
vt 0.893252 2.95529
f 77/200/57 66/201/57 76/202/57

v 174.224 145.983 -54.1015
vt -0.872937 -2.66494
vn 0.287587 0.338162 0.896069
vt -0.208837 -2.50068
vt -0.883094 -2.50068
f 78/203/58 66/204/58 77/205/58

vt -0.647079 -1.21816
vn 0.430616 0.677108 0.596736
vt -1.32513 -1.30903
vt -1.33536 -1.55568
f 66/206/59 78/207/59 70/208/59

vt 2.79427 -0.288129
vn 0.552851 -0.371709 0.745781
vt 3.14942 0.11841
vt 2.81455 0.2435
f 61/209/60 66/210/60 65/211/60

vt 1.64564 -0.678907
vn 0.785315 0.157215 0.598802
vt 1.41222 -0.600869
vt 1.34986 -1.12112
f 65/212/61 63/213/61 61/214/61

vt -2.28125 0.541667
vt -1.96354 0.958333
f 61/215/7 5/22/7 63/216/7

f 9/20/7 5/22/7 61/215/7

vt 1.64564 1.54655
vn 0.785315 0.157215 -0.598802
vt 1.34986 1.98876
vt 1.41222 1.46851
f 56/217/62 61/218/62 9/219/62

vt 2.79427 1.00984
vn 0.552851 -0.371709 -0.745781
vt 2.81455 0.478208
vt 3.14942 0.603297
f 61/220/63 56/221/63 71/222/63

vt -1.03611 2.99702
vn 0.108389 0.230031 -0.967129
vt -0.893319 2.66931
vt -0.334836 2.66931
f 71/223/64 56/224/64 55/225/64

vt -1.67462 2.53145
vn 0.10277 0.461035 -0.881411
vt -0.920929 2.35503
v 138.306 159.6 -68.389
vt -1.08328 2.53145
f 71/226/65 55/227/65 79/228/65

vt -1.28178 2.11089
vn 0.178531 0.800901 -0.571563
vt -1.67462 1.78083
vt -1.08328 1.78083
f 68/229/66 71/230/66 79/231/66

vt -2.28125 2.19477
vn -7.61314e-015 0.708716 -0.705494
vt -2.2278 1.81262
vt -1.88542 2.19477
f 69/232/67 71/233/67 68/234/67

vt 1.67119 1.88569
vn 0.793998 0.0550385 -0.605424
vt 0.778689 1.25747
vt 1.69316 1.36217
f 61/235/68 57/236/68 9/237/68

vt -0.953125 0.958333
f 63/216/7 5/22/7 47/238/7

vt -1.45833 1.0625
f 63/216/7 47/238/7 64/239/7

vt -2.27926 -0.176856
vn -0.195575 0.249039 0.948541
vt -2.02895 -0.703192
vt -1.88193 -0.505816
f 64/240/69 48/241/69 47/242/69

vt -2.31722 -1.18285
vn -0.149569 0.33411 0.930591
vt -1.71628 -1.06903
vt -2.08013 -0.61373
f 50/243/70 48/244/70 64/245/70

vt -1.08917 2.25685
vn -0.201142 -0.0886854 0.975539
vt -1.29299 1.78299
vt -0.454233 1.4039
f 64/246/71 47/247/71 46/248/71

v 132.445 113.599 -46.799
vt -0.250414 1.87776
f 80/249/71 64/246/71 46/248/71

vt 1.4271 -0.725731
f 62/152/41 64/154/41 80/250/41

vt 0.696015 -1.83166
vn 0.201888 0.0222535 0.979156
vt 0.751368 -1.3188
v 132.445 85.659 -46.164
vt -0.15978 -1.21623
f 62/251/72 80/252/72 81/253/72

vt -1.07093 1.51988
vn -0.201888 0.0222535 0.979156
vt -1.01558 1.00702
vt -0.15978 1.62245
f 80/254/73 46/255/73 81/256/73

vt 0.114466 1.6746
vn -0.27727 -0.0218305 0.960544
vt -0.839027 1.22517
v 117.046 85.659 -50.609
vt 0.0748116 1.15026
f 81/257/74 46/258/74 82/259/74

vt -0.894405 1.308
vn -0.701147 -0.0162007 0.712833
vt 0.0146781 0.832714
vt 0.0220171 1.27829
f 46/260/75 44/261/75 82/262/75

vt 1.06796 -1.56778
vn 0.27727 -0.0218305 0.960544
vt 0.114466 -1.11834
v 147.843 85.659 -50.609
vt 0.15412 -1.64268
f 62/263/76 81/264/76 83/265/76

vt 0.0526966 -1.24583
vn 0.701147 -0.0162007 0.712833
vt 0.96178 -0.770542
vt 0.0453576 -0.800247
f 59/266/77 62/267/77 83/268/77

vt 0.735131 -0.452503
vn 0.815777 0.0741615 0.573593
vt -0.206535 -0.859434
vt 0.713912 -0.859434
f 62/269/78 59/270/78 60/271/78

vt -1.91847 1.17282
vn -0.437453 0.592665 -0.6763
v 87.9946 149.601 -60.134
vt -1.24581 1.54049
vt -2.03558 1.54049
f 1/272/79 84/273/79 53/274/79

vt -1.12576 1.49098
vn -0.430616 0.677108 -0.596736
vt -1.81405 1.15347
v 90.6651 145.983 -66.1665
vt -1.136 1.24434
f 84/275/80 1/276/80 85/277/80

vt -2.013 1.28842
vn -0.287587 0.338162 -0.896069
vt -1.33875 1.28842
vt -1.3489 1.45268
f 1/278/81 3/279/81 85/280/81

vt -1.91847 -0.374813
vn -0.437453 0.592665 0.6763
vt -2.03558 -0.742481
vt -1.24581 -0.742481
f 49/281/82 53/282/82 84/283/82

vt -1.81405 -0.284159
vn -0.430616 0.677108 0.596736
vt -1.12576 -0.621673
v 90.6651 145.983 -54.1015
vt -1.136 -0.375028
f 49/284/83 84/285/83 86/286/83

vt -2.013 -0.807517
vn -0.287587 0.338162 0.896069
vt -1.3489 -0.971775
v 93.3357 142.364 -51.879
vt -1.33875 -0.807517
f 49/287/84 86/288/84 87/289/84

vt 2.013 1.53608
vn 0.348038 -0.409244 0.843439
vt 1.33875 1.53608
v 96.0062 138.746 -54.7365
vt 1.32859 1.36157
f 49/290/85 87/291/85 88/292/85

vt 2.13491 1.32134
vn 0.557856 -0.5349 0.63457
vt 1.43909 1.20004
vt 1.41405 0.970912
f 49/293/86 88/294/86 4/295/86

vt 1.91847 1.63248
vn 0.369016 -0.499946 0.783505
vt 1.24581 1.19663
vt 1.59998 1.19663
f 49/296/87 4/297/87 5/298/87

