# Alias OBJ Model File
# Exported from SketchUp, (c) 2000-2012 Trimble Navigation Limited
# File units = centimeters

mtllib red_tshirt_nike.mtl

g Mesh1 Shirt1 Model

usemtl Color_A01
v 108.991 155.679 -68.389
vt 24.156 -11.449
vn 0.348038 -0.409244 -0.843439
v 96.0062 138.746 -65.5315
vt 15.9431 -9.35493
v 93.3357 142.364 -68.389
vt 16.0649 -11.449
f 1/1/1 2/2/1 3/3/1

vt 25.6189 -5.80883
vn 0.557856 -0.5349 -0.63457
v 98.6768 135.128 -60.134
vt 16.9686 -1.6037
vt 17.2691 -4.3532
f 1/4/2 4/5/2 2/6/2

vt 23.0217 -11.5118
vn 0.369016 -0.499946 -0.783505
v 107.362 141.539 -60.134
vt 19.1998 -6.28156
vt 14.9498 -6.28156
f 1/7/3 5/8/3 4/9/3

v 117.046 148.795 -70.929
vt -14.246 -15.923
vn -0.552851 -0.371709 -0.745781
vt -14.0026 -9.54342
vt -18.2644 -14.4219
f 6/10/4 5/11/4 1/12/4

vt -26.6182 -1.99178
vn -0.785315 0.157215 -0.598802
v 117.046 141.539 -72.834
vt -23.8171 -2.92823
vt -23.0687 3.31477
f 6/13/5 7/14/5 5/15/5

v 132.445 141.539 -76.009
vt -27.3511 6.23878
vn -0.195575 0.249039 -0.948541
vt -22.5831 10.1863
vt -24.3474 12.5548
f 8/16/6 7/17/6 6/18/6

vt -11.4375 1.5
vn 1.88087e-016 1 -1.25414e-014
v 147.843 141.539 -72.834
vt -23.5625 1.5
vt -17.5 0.25
f 7/19/7 9/20/7 8/21/7

vt -7.625 6.5
f 9/20/7 7/19/7 5/22/7

vt -22.7383 -4.79304
vn -0.793998 0.0550385 -0.605424
v 117.046 113.599 -75.374
vt -11.7646 -6.04947
vt -22.4746 1.48913
f 7/23/8 10/24/8 5/25/8

vt -24.7445 -1.2212
vn -0.201142 0.0886854 -0.975539
v 117.857 140.844 -73.0644
vt -24.6228 -1.63393
vt -14.6794 -5.77026
f 7/26/9 11/27/9 10/28/9

vt -27.1903 -6.90753
f 11/27/9 7/26/9 8/29/9

v 124.076 140.844 -74.3467
vt -25.6106 -3.9305
f 11/27/9 8/29/9 12/30/9

v 123.997 136.416 -74.7328
vt -24.003 -4.62197
f 8/29/9 13/31/9 12/30/9

f 10/28/9 13/31/9 8/29/9

v 117.777 136.416 -73.4505
vt -23.0152 -2.3254
f 13/31/9 10/28/9 14/32/9

v 117.839 139.851 -73.151
vt -24.2624 -1.78894
f 10/28/9 15/33/9 14/32/9

f 10/28/9 11/27/9 15/33/9

v 121.612 138.859 -74.0192
vt -24.5042 -3.34384
f 11/27/9 16/34/9 15/33/9

v 121.635 140.124 -73.9089
vt -24.9635 -3.14628
f 16/34/9 11/27/9 17/35/9

f 17/35/9 11/27/9 12/30/9

v 121.897 140.147 -73.9607
vt -25.0134 -3.23912
f 17/35/9 12/30/9 18/36/9

v 122.152 140.09 -74.0185
vt -25.0336 -3.34257
f 18/36/9 12/30/9 19/37/9

v 122.378 139.959 -74.077
vt -25.0222 -3.44736
f 19/37/9 12/30/9 20/38/9

v 122.554 139.765 -74.131
vt -24.9804 -3.5441
f 20/38/9 12/30/9 21/39/9

v 122.665 139.526 -74.1757
vt -24.9118 -3.62412
f 21/39/9 12/30/9 22/40/9

v 122.701 139.262 -74.207
vt -24.8225 -3.68023
f 22/40/9 12/30/9 23/41/9

f 23/41/9 12/30/9 13/31/9

v 122.658 138.998 -74.2222
vt -24.7207 -3.70742
f 13/31/9 24/42/9 23/41/9

v 122.541 138.758 -74.2199
vt -24.6154 -3.70324
f 13/31/9 25/43/9 24/42/9

v 122.359 138.562 -74.2002
vt -24.516 -3.66807
f 13/31/9 26/44/9 25/43/9

v 122.13 138.429 -74.165
vt -24.4315 -3.60507
f 13/31/9 27/45/9 26/44/9

v 121.873 138.37 -74.1175
vt -24.3695 -3.51987
f 13/31/9 28/46/9 27/45/9

v 121.612 138.39 -74.0618
vt -24.3354 -3.42012
f 13/31/9 29/47/9 28/46/9

f 13/31/9 15/33/9 29/47/9

f 15/33/9 13/31/9 14/32/9

f 16/34/9 29/47/9 15/33/9

v 121.774 138.88 -74.0505
vt -24.5376 -3.39991
f 29/47/9 16/34/9 30/48/9

f 17/35/9 30/48/9 16/34/9

v 121.795 140.102 -73.9439
vt -24.9812 -3.20908
f 30/48/9 17/35/9 31/49/9

f 18/36/9 31/49/9 17/35/9

v 121.944 140.039 -73.9804
vt -24.9821 -3.27434
f 31/49/9 18/36/9 32/50/9

f 32/50/9 18/36/9 19/37/9

v 122.071 139.938 -74.0157
vt -24.9661 -3.3376
f 32/50/9 19/37/9 33/51/9

v 122.168 139.807 -74.0475
vt -24.9342 -3.39455
f 33/51/9 19/37/9 34/52/9

f 34/52/9 19/37/9 20/38/9

v 122.227 139.655 -74.0736
vt -24.8887 -3.44132
f 34/52/9 20/38/9 35/53/9

v 122.245 139.491 -74.0923
vt -24.8326 -3.47471
f 35/53/9 20/38/9 36/54/9

f 36/54/9 20/38/9 26/44/9

f 26/44/9 20/38/9 25/43/9

f 25/43/9 20/38/9 21/39/9

f 25/43/9 21/39/9 24/42/9

f 24/42/9 21/39/9 22/40/9

f 24/42/9 22/40/9 23/41/9

v 122.221 139.327 -74.1022
vt -24.7698 -3.49245
f 26/44/9 37/55/9 36/54/9

v 122.156 139.175 -74.1027
vt -24.7045 -3.49334
f 26/44/9 38/56/9 37/55/9

f 27/45/9 38/56/9 26/44/9

v 122.055 139.044 -74.0937
vt -24.6413 -3.4773
f 27/45/9 39/57/9 38/56/9

v 121.925 138.943 -74.0759
vt -24.5843 -3.44543
f 27/45/9 40/58/9 39/57/9

f 28/46/9 40/58/9 27/45/9

f 28/46/9 30/48/9 40/58/9

f 29/47/9 30/48/9 28/46/9

f 30/48/9 31/49/9 40/58/9

f 40/58/9 31/49/9 32/50/9

f 40/58/9 32/50/9 39/57/9

f 39/57/9 32/50/9 33/51/9

f 39/57/9 33/51/9 38/56/9

f 38/56/9 33/51/9 34/52/9

f 38/56/9 34/52/9 37/55/9

f 37/55/9 34/52/9 35/53/9

f 37/55/9 35/53/9 36/54/9

v 132.445 113.599 -76.009
vt -11 -17.4748
vn -0.0412021 -1.26648e-014 -0.999151
vt -11 -11.4072
vt -22 -17.4748
f 41/59/10 10/60/10 8/61/10

v 132.445 85.659 -76.644
vt -8.44695 -15.3095
vn -0.0411915 0.0227021 -0.998893
vt -15.1544 -4.67867
vt -18.0807 -9.99407
f 42/62/11 10/63/11 41/64/11

vt 6.41037 -15.5525
vn -0.275698 -0.108534 -0.955097
v 117.046 85.659 -72.199
vt 4.18963 -9.64614
vt -6.04581 -13.8649
f 42/65/12 43/66/12 10/67/12

vt -9.91565 -7.34496
vn -0.777901 -0.0709509 -0.624368
vt 1.03888 -5.74471
v 107.362 85.659 -60.134
vt 0.692587 0.336219
f 10/68/13 43/69/13 44/70/13

vt -11.9903 -3.9439
vn -0.902407 0.082037 -0.423003
vt -0.690335 2.67768
v 109.902 113.599 -60.134
vt -11.7357 2.67768
f 10/71/14 44/72/14 45/73/14

v 117.046 113.599 -49.974
vt -11.9903 14.5633
vn -0.815777 0.0741615 0.573593
vt -11.7357 9.6801
vt -0.690335 9.6801
f 46/74/15 45/75/15 44/76/15

vt -21.2193 10.8226
vn -0.815777 -0.0741615 0.573593
vt -10.174 10.8226
vt -9.91932 15.7057
f 5/77/16 45/78/16 46/79/16

vt -21.2193 1.83515
vn -0.902407 -0.082037 -0.423003
vt -9.91932 -4.78643
vt -10.174 1.83515
f 5/80/17 10/81/17 45/82/17

v 117.046 141.539 -47.434
vt -21.1564 16.9819
vn -0.793998 -0.0550385 0.605424
vt -21.42 10.6997
vt -10.1827 15.7255
f 47/83/18 5/84/18 46/85/18

v 117.046 148.795 -49.339
vt -26.6182 12.4034
vn -0.785315 0.157215 0.598802
vt -23.0687 7.09689
vt -23.8171 13.3399
f 48/86/19 5/87/19 47/88/19

vt -14.246 24.5835
vn -0.552851 -0.371709 0.745781
v 108.991 155.679 -51.879
vt -18.2644 23.0824
vt -14.0026 18.2039
f 48/89/20 49/90/20 5/91/20

v 132.445 159.226 -50.609
vt -26.2716 -17.8336
vn -0.090056 0.250316 0.963967
vt -17.1104 -19.7131
vt -19.1768 -15.9541
f 50/92/21 49/93/21 48/94/21

vt -23.3824 -13.0699
vn -0.133176 0.597437 0.79078
v 126.583 159.6 -51.879
vt -21.1622 -13.8868
vt -14.0661 -13.8868
f 50/95/22 51/96/22 49/97/22

vt -21.1622 -6.35025
vn -0.178531 0.800901 0.571563
v 119.427 163.896 -60.134
vt -18.7802 -10.311
vt -14.0661 -6.35025
f 51/98/23 52/99/23 49/100/23

vt -8.26637 -12.5382
vn 7.58144e-015 0.708716 0.705494
vt -12.375 -17.1239
v 107.362 163.896 -60.134
vt -7.625 -17.1239
f 49/101/24 52/102/24 53/103/24

vt -12.375 26.3372
vn -7.48635e-015 0.708716 -0.705494
vt -8.26637 21.7515
vt -7.625 26.3372
f 52/104/25 1/105/25 53/106/25

vt -18.7802 20.9782
vn -0.178531 0.800901 -0.571563
v 126.583 159.6 -68.389
vt -21.1622 17.0175
vt -14.0661 17.0175
f 52/107/26 54/108/26 1/109/26

v 132.445 156.051 -70.929
vt -23.1104 21.5484
vn -0.10277 0.461035 -0.881411
vt -14.0661 23.6654
vt -21.1622 23.6654
f 55/110/27 1/111/27 54/112/27

vt -27.6432 17.6036
vn -0.108389 0.230031 -0.967129
vt -20.9414 17.6036
vt -19.228 21.5361
f 55/113/28 6/114/28 1/115/28

vt -25.208 11.6938
vn -0.153832 0.326473 -0.932605
vt -20.9414 17.2355
vt -27.6432 17.2355
f 8/116/29 6/117/29 55/118/29

v 147.843 148.795 -70.929
vt -10.7198 31.1486
vn 0.153832 0.326473 -0.932605
vt -6.45326 25.6069
vt -4.01803 31.1486
f 56/119/30 8/120/30 55/121/30

vt -4.9433 30.691
vn 0.195575 0.249039 -0.948541
vt -0.175332 26.7434
vt -3.17897 33.0595
f 9/122/31 8/123/31 56/124/31

v 147.843 113.599 -75.374
vt 0.559143 25.4717
vn 0.201142 0.0886854 -0.975539
vt 13.0701 24.3344
vt 10.6242 30.0207
f 57/125/32 8/126/32 9/127/32

vt 11 23.5631
vn 0.0412021 -1.26624e-014 -0.999151
vt 11 17.4954
vt 22 17.4954
f 57/128/33 41/129/33 8/130/33

vt -1.73946 25.9402
vn 0.0411915 0.0227021 -0.998893
vt -8.44695 15.3095
vt 1.1868 20.6248
f 57/131/34 42/132/34 41/133/34

v 147.843 85.659 -72.199
vt 8.6311 21.4588
vn 0.275698 -0.108534 -0.955097
vt 6.41037 15.5525
vt 18.8665 17.24
f 58/134/35 42/135/35 57/136/35

vt 13.0947 14.4176
vn 0.777901 -0.0709509 -0.624368
v 157.527 85.659 -60.134
vt 2.4865 22.0988
vt 2.14021 16.0178
f 57/137/36 59/138/36 58/139/36

vt 8.82158 10.8004
vn 0.902407 0.082037 -0.423003
v 154.987 113.599 -60.134
vt 8.56694 17.422
vt -2.47842 17.422
f 57/140/37 60/141/37 59/142/37

v 157.527 141.539 -60.134
vt 24.3881 16.5795
vn 0.902407 -0.082037 -0.423003
vt 13.3427 16.5795
vt 13.0881 9.95788
f 61/143/38 60/144/38 57/145/38

vt 24.3881 -9.17073
vn 0.815777 -0.0741615 0.573593
v 147.843 113.599 -49.974
vt 13.0881 -4.28756
vt 13.3427 -9.17073
f 61/146/39 62/147/39 60/148/39

v 147.843 141.539 -47.434
vt 23.5767 -4.15719
vn 0.793998 -0.0550385 0.605424
vt 12.6031 -5.41363
vt 23.8404 -10.4394
f 63/149/40 62/150/40 61/151/40

vt 19.571 -14.3951
vn 0.201142 -0.0886854 0.975539
vt 29.6361 -9.84604
v 132.445 141.539 -44.259
vt 27.1903 -4.15971
f 62/152/41 63/153/41 64/154/41

v 147.843 148.795 -49.339
vt -3.17897 -28.943
vn 0.195575 0.249039 0.948541
vt -0.175332 -22.6269
vt -4.9433 -26.5745
f 65/155/42 64/156/42 63/157/42

vt -11.3497 -26.1364
vn 0.149569 0.33411 0.930591
vt -4.13845 -27.5023
vt -6.98356 -20.6728
f 65/158/43 50/159/43 64/160/43

v 155.898 155.679 -51.879
vt -15.8231 -31.1347
vn 0.090056 0.250316 0.963967
vt -6.66189 -29.2551
vt -13.7566 -27.3756
f 66/161/44 50/162/44 65/163/44

vt -20.0954 -19.9086
vn 0.133176 0.597437 0.79078
v 138.306 159.6 -51.879
vt -12.9994 -19.9086
vt -10.7792 -19.0918
f 66/164/45 67/165/45 50/166/45

vt -20.0954 -10.7027
vn 0.178531 0.800901 0.571563
v 145.462 163.896 -60.134
vt -15.3814 -14.6634
vt -12.9994 -10.7027
f 66/167/46 68/168/46 67/169/46

vt -26.7336 -12.5382
vn 7.54974e-015 0.708716 0.705494
v 157.527 163.896 -60.134
vt -27.375 -17.1239
vt -22.625 -17.1239
f 66/170/47 69/171/47 68/172/47

v 176.895 149.601 -60.134
vt -13.2101 -22.9668
vn 0.437453 0.592665 0.6763
vt -3.73296 -22.9668
vt -5.13821 -18.5548
f 70/173/48 69/174/48 66/175/48

vt -13.2101 32.5429
vn 0.437453 0.592665 -0.6763
v 155.898 155.679 -68.389
vt -5.13821 28.1309
vt -3.73296 32.5429
f 70/176/49 71/177/49 69/178/49

vt -16.0243 29.0998
vn 0.430616 0.677108 -0.596736
v 174.224 145.983 -66.1665
vt -15.9016 26.1401
vt -7.76495 25.0496
f 70/179/50 72/180/50 71/181/50

vt -10.4752 37.7501
vn 0.287587 0.338162 -0.896069
v 171.553 142.364 -68.389
vt -10.5971 35.779
vt -2.50604 35.779
f 72/182/51 73/183/51 71/184/51

vt 10.5971 -30.5736
vn -0.348038 -0.409244 -0.843439
v 168.883 138.746 -65.5315
vt 10.719 -28.4795
vt 2.50604 -30.5736
f 73/185/52 74/186/52 71/187/52

vt 6.95444 -20.3844
vn -0.557856 -0.5349 -0.63457
v 166.212 135.128 -60.134
vt 7.25493 -17.6349
vt -1.39538 -21.84
f 74/188/53 75/189/53 71/190/53

vt 13.2101 -22.5668
vn -0.369016 -0.499946 -0.783505
vt 8.9601 -22.5668
vt 5.13821 -27.7971
f 75/191/54 61/192/54 71/193/54

vt 13.2101 30.6448
vn -0.369016 -0.499946 0.783505
vt 5.13821 35.8751
vt 8.9601 30.6448
f 75/194/55 66/195/55 61/196/55

v 168.883 138.746 -54.7365
vt 6.95444 30.4316
vn -0.557856 -0.5349 0.63457
vt -1.39538 31.8873
vt 7.25493 27.6821
f 76/197/56 66/198/56 75/199/56

v 171.553 142.364 -51.879
vt 10.5971 37.5575
vn -0.348038 -0.409244 0.843439
vt 2.50604 37.5575
vt 10.719 35.4634
f 77/200/57 66/201/57 76/202/57

v 174.224 145.983 -54.1015
vt -10.4752 -31.9792
vn 0.287587 0.338162 0.896069
vt -2.50604 -30.0081
vt -10.5971 -30.0081
f 78/203/58 66/204/58 77/205/58

vt -7.76495 -14.6179
vn 0.430616 0.677108 0.596736
vt -15.9016 -15.7084
vt -16.0243 -18.6681
f 66/206/59 78/207/59 70/208/59

vt 33.5313 -3.45755
vn 0.552851 -0.371709 0.745781
vt 37.793 1.42092
vt 33.7746 2.92199
f 61/209/60 66/210/60 65/211/60

vt 19.7477 -8.14688
vn 0.785315 0.157215 0.598802
vt 16.9467 -7.21043
vt 16.1983 -13.4534
f 65/212/61 63/213/61 61/214/61

vt -27.375 6.5
vt -23.5625 11.5
f 61/215/7 5/22/7 63/216/7

f 9/20/7 5/22/7 61/215/7

vt 19.7477 18.5585
vn 0.785315 0.157215 -0.598802
vt 16.1983 23.8651
vt 16.9467 17.6221
f 56/217/62 61/218/62 9/219/62

vt 33.5313 12.118
vn 0.552851 -0.371709 -0.745781
vt 33.7746 5.7385
vt 37.793 7.23957
f 61/220/63 56/221/63 71/222/63

vt -12.4333 35.9643
vn 0.108389 0.230031 -0.967129
vt -10.7198 32.0317
vt -4.01803 32.0317
f 71/223/64 56/224/64 55/225/64

vt -20.0954 30.3774
vn 0.10277 0.461035 -0.881411
vt -11.0511 28.2603
v 138.306 159.6 -68.389
vt -12.9994 30.3774
f 71/226/65 55/227/65 79/228/65

vt -15.3814 25.3307
vn 0.178531 0.800901 -0.571563
vt -20.0954 21.37
vt -12.9994 21.37
f 68/229/66 71/230/66 79/231/66

vt -27.375 26.3372
vn -7.61314e-015 0.708716 -0.705494
vt -26.7336 21.7515
vt -22.625 26.3372
f 69/232/67 71/233/67 68/234/67

vt 20.0543 22.6282
vn 0.793998 0.0550385 -0.605424
vt 9.34427 15.0896
vt 20.3179 16.3461
f 61/235/68 57/236/68 9/237/68

vt -11.4375 11.5
f 63/216/7 5/22/7 47/238/7

vt -17.5 12.75
f 63/216/7 47/238/7 64/239/7

vt -27.3511 -2.12227
vn -0.195575 0.249039 0.948541
vt -24.3474 -8.4383
vt -22.5831 -6.06979
f 64/240/69 48/241/69 47/242/69

vt -27.8067 -14.1942
vn -0.149569 0.33411 0.930591
vt -20.5954 -12.8283
vt -24.9616 -7.36476
f 50/243/70 48/244/70 64/245/70

vt -13.0701 27.0822
vn -0.201142 -0.0886854 0.975539
vt -15.5159 21.3959
vt -5.4508 16.8468
f 64/246/71 47/247/71 46/248/71

v 132.445 113.599 -46.799
vt -3.00497 22.5331
f 80/249/71 64/246/71 46/248/71

vt 17.1252 -8.70877
f 62/152/41 64/154/41 80/250/41

vt 8.35218 -21.9799
vn 0.201888 0.0222535 0.979156
vt 9.01641 -15.8256
v 132.445 85.659 -46.164
vt -1.91736 -14.5947
f 62/251/72 80/252/72 81/253/72

vt -12.8511 18.2385
vn -0.201888 0.0222535 0.979156
vt -12.1869 12.0843
vt -1.91736 19.4694
f 80/254/73 46/255/73 81/256/73

vt 1.37359 20.0952
vn -0.27727 -0.0218305 0.960544
vt -10.0683 14.702
v 117.046 85.659 -50.609
vt 0.897739 13.8031
f 81/257/74 46/258/74 82/259/74

vt -10.7329 15.696
vn -0.701147 -0.0162007 0.712833
vt 0.176137 9.99257
vt 0.264205 15.3395
f 46/260/75 44/261/75 82/262/75

vt 12.8155 -18.8133
vn 0.27727 -0.0218305 0.960544
vt 1.37359 -13.4201
v 147.843 85.659 -50.609
vt 1.84944 -19.7122
f 62/263/76 81/264/76 83/265/76

vt 0.63236 -14.9499
vn 0.701147 -0.0162007 0.712833
vt 11.5414 -9.2465
vt 0.544291 -9.60296
f 59/266/77 62/267/77 83/268/77

vt 8.82158 -5.43004
vn 0.815777 0.0741615 0.573593
vt -2.47842 -10.3132
vt 8.56694 -10.3132
f 62/269/78 59/270/78 60/271/78

vt -23.0217 14.0739
vn -0.437453 0.592665 -0.6763
v 87.9946 149.601 -60.134
vt -14.9498 18.4859
vt -24.4269 18.4859
f 1/272/79 84/273/79 53/274/79

vt -13.5092 17.8918
vn -0.430616 0.677108 -0.596736
vt -21.7686 13.8416
v 90.6651 145.983 -66.1665
vt -13.6319 14.932
f 84/275/80 1/276/80 85/277/80

vt -24.156 15.4611
vn -0.287587 0.338162 -0.896069
vt -16.0649 15.4611
vt -16.1868 17.4322
f 1/278/81 3/279/81 85/280/81

vt -23.0217 -4.49776
vn -0.437453 0.592665 0.6763
vt -24.4269 -8.90977
vt -14.9498 -8.90977
f 49/281/82 53/282/82 84/283/82

vt -21.7686 -3.40991
vn -0.430616 0.677108 0.596736
vt -13.5092 -7.46007
v 90.6651 145.983 -54.1015
vt -13.6319 -4.50034
f 49/284/83 84/285/83 86/286/83

vt -24.156 -9.6902
vn -0.287587 0.338162 0.896069
vt -16.1868 -11.6613
v 93.3357 142.364 -51.879
vt -16.0649 -9.6902
f 49/287/84 86/288/84 87/289/84

vt 24.156 18.4329
vn 0.348038 -0.409244 0.843439
vt 16.0649 18.4329
v 96.0062 138.746 -54.7365
vt 15.9431 16.3389
f 49/290/85 87/291/85 88/292/85

vt 25.6189 15.8561
vn 0.557856 -0.5349 0.63457
vt 17.2691 14.4005
vt 16.9686 11.6509
f 49/293/86 88/294/86 4/295/86

vt 23.0217 19.5898
vn 0.369016 -0.499946 0.783505
vt 14.9498 14.3596
vt 19.1998 14.3596
f 49/296/87 4/297/87 5/298/87

